<svg xmlns="http://www.w3.org/2000/svg" width="85.174" height="39.89" viewBox="0 0 85.174 39.89">
  <g id="Group_42" data-name="Group 42" transform="translate(-45.77 -83.11)">
    <rect id="Rectangle_60" data-name="Rectangle 60" width="8.067" height="5.061" rx="2.531" transform="translate(63.156 96.294)" fill="#ef6c64"/>
    <circle id="Ellipse_46" data-name="Ellipse 46" cx="7.277" cy="7.277" r="7.277" transform="translate(51.06 108.447)" fill="#241f20"/>
    <path id="Path_212" data-name="Path 212" d="M63.109,100.842a4.357,4.357,0,0,0,3.93-2.475L75.55,83.11h24.464l5.385,17.732h.928a6.815,6.815,0,0,1,6.832,6.836v2.669a6.815,6.815,0,0,1-6.832,6.789H45.77V100.842Z" transform="translate(0 0)" fill="#ef6c64"/>
    <path id="Path_213" data-name="Path 213" d="M150.88,83.11H128.934l-10.887,19.865H104.72v14.16h59.716V100.842H159.53a1.2,1.2,0,0,1-1.14-.821Z" transform="translate(-33.492 0)" fill="#e5524f"/>
    <path id="Path_214" data-name="Path 214" d="M102.78,102.758h13.063l6.793-13.448H110.065Z" transform="translate(-32.39 -3.523)" fill="#f8b4ae"/>
    <path id="Path_215" data-name="Path 215" d="M149.88,103.228l6.75-13.668h8.076v13.668Z" transform="translate(-59.15 -3.665)" fill="#f8b4ae"/>
    <path id="Path_216" data-name="Path 216" d="M199.072,89.56l5.1,13.668H193.1V89.56Z" transform="translate(-83.706 -3.665)" fill="#f8b4ae"/>
    <line id="Line_5" data-name="Line 5" x1="4.504" transform="translate(100.386 102.021)" fill="none" stroke="#f8b4ae" stroke-linejoin="round" stroke-width="4"/>
    <circle id="Ellipse_47" data-name="Ellipse 47" cx="2.004" cy="2.004" r="2.004" transform="translate(63.877 108.52)" fill="#fff"/>
    <circle id="Ellipse_48" data-name="Ellipse 48" cx="2.004" cy="2.004" r="2.004" transform="translate(48.201 108.52)" fill="#fff"/>
    <circle id="Ellipse_49" data-name="Ellipse 49" cx="7.277" cy="7.277" r="7.277" transform="translate(109.468 108.447)" fill="#241f20"/>
    <circle id="Ellipse_50" data-name="Ellipse 50" cx="7.277" cy="7.277" r="7.277" transform="translate(81.717 108.447)" fill="#241f20"/>
    <rect id="Rectangle_61" data-name="Rectangle 61" width="8.067" height="5.061" rx="2.531" transform="translate(88.994 96.294)" fill="#e5524f"/>
    <rect id="Rectangle_62" data-name="Rectangle 62" width="5.683" height="3.006" transform="translate(55.202 109.021)" fill="#0094c3"/>
  </g>
</svg>
