<svg xmlns="http://www.w3.org/2000/svg" xmlns:xlink="http://www.w3.org/1999/xlink" viewBox="0 0 300 300"><defs><style>.cls-1{fill:none;}.cls-2{isolation:isolate;}.cls-21,.cls-3{fill:#241f20;}.cls-3{opacity:0.1;}.cls-4{fill:#123a61;}.cls-5{fill:#9d654c;}.cls-6{clip-path:url(#clip-path);}.cls-7{fill:#0096c5;}.cls-8{fill:#67666a;}.cls-10,.cls-8{mix-blend-mode:multiply;}.cls-9{clip-path:url(#clip-path-2);}.cls-10{fill:#424143;}.cls-11{clip-path:url(#clip-path-3);}.cls-12{fill:#231f20;}.cls-13{fill:#ccc9d0;}.cls-14{clip-path:url(#clip-path-4);}.cls-15{fill:#0e385c;}.cls-16{fill:#f1f0e0;}.cls-17{fill:#f46c63;}.cls-18{fill:#f06260;}.cls-19{clip-path:url(#clip-path-5);}.cls-20{clip-path:url(#clip-path-6);}.cls-22{clip-path:url(#clip-path-7);}.cls-23{fill:#ef6260;}.cls-24{fill:#08b47c;}.cls-25{fill:#fafafa;}.cls-26{clip-path:url(#clip-path-8);}.cls-27{clip-path:url(#clip-path-9);}</style></defs><title>1-3-01</title><g class="cls-2"><g id="Layer_1" data-name="Layer 1"><path class="cls-21" d="M26.27,108.08H57.44a1.13,1.13,0,0,1,1.13,1.13v5a0,0,0,0,1,0,0H26.27a1.13,1.13,0,0,1-1.13-1.13v-3.85a1.13,1.13,0,0,1,1.13-1.13Z" transform="translate(83.71 222.27) rotate(180)"/><circle class="cls-21" cx="20.48" cy="269.31" r="14.2"/><circle class="cls-21" cx="160.69" cy="269.31" r="14.2"/><path class="cls-21" d="M178.66,266.61c-3.19-10-12.9-15.77-21.75-14-6.75,1.35-12.29,6.94-14.2,14.2Z"/><path class="cls-21" d="M40.55,255.83H148.28a6.93,6.93,0,0,1,6.93,6.93v4.54a1.11,1.11,0,0,1-1.11,1.11H40.55a1.11,1.11,0,0,1-1.11-1.11V256.94a1.11,1.11,0,0,1,1.11-1.11Z" transform="translate(194.64 524.24) rotate(-180)"/><path class="cls-21" d="M30.85,228.65h0a6.5,6.5,0,0,1,6.5,6.5v33a3.25,3.25,0,0,1-3.25,3.25h0a3.25,3.25,0,0,1-3.25-3.25V228.65a0,0,0,0,1,0,0Z" transform="translate(176.02 458.66) rotate(153.54)"/><g class="cls-27"><path class="cls-21" d="M38,112a1.44,1.44,0,0,1,1.62-1.23l3.69.48a1.43,1.43,0,0,1,1.25,1.59l-2.15,16.22H35.74Z"/><path class="cls-21" d="M25.08,209.64h6.67L24.7,263a1.44,1.44,0,0,1-1.62,1.22l-3.69-.47a1.43,1.43,0,0,1-1.25-1.59Z"/><path class="cls-23" d="M35.74,129.05h6.67L31.75,209.64H25.08Z"/></g><ellipse class="cls-21" cx="25.93" cy="111.14" rx="2.65" ry="3.05"/><ellipse class="cls-21" cx="57.68" cy="111.14" rx="2.65" ry="3.05"/><path class="cls-3" d="M184,283.18c0,2.4-47,4.11-81.3,4.29-41.35.21-95.06-1.64-95.11-4.26s50.51-5.93,99.24-5.36C142.83,278.28,184.05,280.93,184,283.18Z"/><path class="cls-24" d="M71.68,88.44h0a1.25,1.25,0,0,1-1.25-1.24V82.06a1.24,1.24,0,0,0-1.25-1.24H14.37a1.23,1.23,0,0,0-1.24,1.24V101.5a1.24,1.24,0,0,0,1.24,1.24H69.18a1.25,1.25,0,0,0,1.25-1.24V96.36a1.25,1.25,0,0,1,1.25-1.25h0a1.24,1.24,0,0,0,1.24-1.24V89.69A1.25,1.25,0,0,0,71.68,88.44Z"/><path class="cls-25" d="M42.66,84.79h4.92l-5.36,5.36h4l-4,4h2.59l-4.9,4.61L42,95.27H38.47l2.79-3.49H38.47Z"/></g></g></svg>