<svg xmlns="http://www.w3.org/2000/svg" xmlns:xlink="http://www.w3.org/1999/xlink" viewBox="0 0 300 300"><defs><style>.cls-1,.cls-25,.cls-30,.cls-32,.cls-8{fill:none;}.cls-2{isolation:isolate;}.cls-3{opacity:0.6;}.cls-4{fill:#ef6c64;}.cls-13,.cls-5{fill:#241f20;}.cls-6{fill:#e5524f;}.cls-7{fill:#f8b4ae;}.cls-8{stroke:#f8b4ae;stroke-width:4px;}.cls-23,.cls-25,.cls-8{stroke-linejoin:round;}.cls-9{fill:#fff;}.cls-10{fill:#0094c3;}.cls-11{clip-path:url(#clip-path);}.cls-12{fill:#ef6260;}.cls-13{opacity:0.1;}.cls-14,.cls-24{fill:#f46c63;}.cls-15,.cls-23{fill:#dcb88b;}.cls-16{fill:#0e3759;}.cls-17{fill:#133a61;}.cls-17,.cls-22{mix-blend-mode:multiply;}.cls-18{clip-path:url(#clip-path-2);}.cls-19{fill:#231f20;}.cls-20{fill:#ccc9d0;}.cls-21{fill:#221e1f;}.cls-22{fill:#67666a;}.cls-23{stroke:#9c654c;stroke-width:0.5px;}.cls-23,.cls-32{stroke-linecap:round;}.cls-24{stroke:#d15956;}.cls-24,.cls-30,.cls-32{stroke-miterlimit:10;}.cls-25{stroke:#f06c64;stroke-width:3px;}.cls-26{fill:#f7b3ad;}.cls-27{fill:#f06c64;}.cls-28{fill:#f3f2e4;}.cls-29{fill:#d6b991;}.cls-30{stroke:#0096c5;}.cls-31{fill:#9d654c;}.cls-32{stroke:#231f20;stroke-width:2px;}.cls-33{clip-path:url(#clip-path-3);}.cls-34{clip-path:url(#clip-path-4);}.cls-35{fill:#e86e60;}</style><clipPath id="clip-path"><path class="cls-1" d="M270.88,245.45,248.75,78.08a1.58,1.58,0,0,1,1.39-1.77l4.11-.53a1.6,1.6,0,0,1,1.81,1.36l22.13,167.37a1.58,1.58,0,0,1-1.39,1.77l-4.11.53A1.61,1.61,0,0,1,270.88,245.45Z"/></clipPath><clipPath id="clip-path-2"><path id="SVGID" class="cls-1" d="M41.92,101.75c.89-3.66,3.11-10,7.56-22.6,2.69-7.64,3.75-10.25,6.68-12.55,5.38-4.23,14.13-5.07,21-1.61A20.21,20.21,0,0,1,86.75,75.5q4.69,13.5,9.09,28c4.42,14.71,4.12,13.45,9.28,34,1.78,7.09,3.2,13.11,4.23,17.62l-77.17,1.13C33,150.52,36.58,123.83,41.92,101.75Z"/></clipPath><clipPath id="clip-path-3"><rect class="cls-1" x="165.46" y="5" width="39.76" height="27.03"/></clipPath><clipPath id="clip-path-4"><rect class="cls-1" x="165.46" y="5" width="39.76" height="27.03"/></clipPath></defs><title>1-3-01</title><g class="cls-2"><g id="Layer_1" data-name="Layer 1"><rect class="cls-5" x="233.13" y="72.79" width="37.25" height="6.81" rx="0.7"/><circle class="cls-5" cx="275.58" cy="252.49" r="15.83"/><circle class="cls-5" cx="119.32" cy="252.49" r="15.83"/><path class="cls-5" d="M99.28,249.48c3.55-11.14,14.38-17.58,24.24-15.63,7.53,1.5,13.7,7.73,15.83,15.83Z"/><path class="cls-5" d="M126.54,237.46h126.8a1.11,1.11,0,0,1,1.11,1.11v6a6.93,6.93,0,0,1-6.93,6.93h-121a1.11,1.11,0,0,1-1.11-1.11v-11.8A1.11,1.11,0,0,1,126.54,237.46Z"/><path class="cls-5" d="M260.61,206.31h0a3.62,3.62,0,0,1,3.62,3.62v37.62A7.25,7.25,0,0,1,257,254.8h0a0,0,0,0,1,0,0V209.93A3.62,3.62,0,0,1,260.61,206.31Z" transform="translate(130.01 -91.96) rotate(26.46)"/><g class="cls-11"><path class="cls-5" d="M256.06,77.14a1.6,1.6,0,0,0-1.81-1.36l-4.11.53a1.58,1.58,0,0,0-1.39,1.77l2.39,18.08h7.43Z"/><path class="cls-5" d="M270.45,186H263l7.86,59.47a1.61,1.61,0,0,0,1.81,1.36l4.11-.53a1.58,1.58,0,0,0,1.39-1.77Z"/><path class="cls-12" d="M258.57,96.16h-7.43L263,186h7.43Z"/></g><ellipse class="cls-5" cx="269.51" cy="76.19" rx="2.95" ry="3.4"/><ellipse class="cls-5" cx="234.12" cy="76.19" rx="2.95" ry="3.4"/><path class="cls-13" d="M93.3,267.94c0,2.68,52.4,4.58,90.61,4.78,46.09.24,106-1.82,106-4.74s-56.29-6.61-110.6-6C139.21,262.48,93.27,265.44,93.3,267.94Z"/><path class="cls-20" d="M272.05,52.6h0a.92.92,0,0,1-.92-.92V47.86a.93.93,0,0,0-.93-.92H229.49a.92.92,0,0,0-.92.92V62.3a.92.92,0,0,0,.92.92H270.2a.93.93,0,0,0,.93-.92V58.48a.92.92,0,0,1,.92-.92h0a.93.93,0,0,0,.93-.93v-3.1A.93.93,0,0,0,272.05,52.6Z"/><rect class="cls-12" x="229.86" y="48.23" width="3.7" height="13.69" rx="1.7"/></g></g></svg>