<svg xmlns="http://www.w3.org/2000/svg" xmlns:xlink="http://www.w3.org/1999/xlink" width="54.435" height="96.922" viewBox="0 0 54.435 96.922">
  <defs>
    <clipPath id="clip-path">
      <path id="SVGID" d="M36.029,78.215c.352-1.446,1.229-3.952,2.987-8.931,1.063-3.019,1.482-4.05,2.64-4.959a8.079,8.079,0,0,1,8.3-.636,7.986,7.986,0,0,1,3.79,4.153q1.853,5.335,3.592,11.065C59.083,84.72,58.965,84.222,61,92.343c.7,2.8,1.265,5.181,1.672,6.963l-30.5.447C32.5,97.488,33.919,86.941,36.029,78.215Z" transform="translate(-32.18 -62.839)" fill="none"/>
    </clipPath>
  </defs>
  <g id="_1-3-01-07_1_" data-name="1-3-01-07 (1)" transform="translate(-18.6 -42.249)" style="isolation: isolate">
    <g id="Layer_1" data-name="Layer 1" transform="translate(18.6 42.249)">
      <path id="Path_225" data-name="Path 225" d="M65.893,76.5a12.562,12.562,0,0,1,7,6.674A19.644,19.644,0,0,1,80.8,77.1a18.7,18.7,0,0,1,4.078-1.186l3.885,2.1a15.574,15.574,0,0,1,.217,3.612c-.328,5.619-3.952,13.041-10.61,14.989-7.026,2.039-15.807-2.478-18.929-11.27" transform="translate(-43.301 -62.608)" fill="#f46c63"/>
      <path id="Path_226" data-name="Path 226" d="M125.333,70.215c1.186-.747,1.628-.79,1.976-.656a1.792,1.792,0,0,1,.873,1.312c.158,0,1.241.095,1.533.767.123.281.107.668-.549,1.751a13.324,13.324,0,0,1-2.083,2.632l-4.454-3.64A15.68,15.68,0,0,1,125.333,70.215Z" transform="translate(-81.52 -58.731)" fill="#dcb88b"/>
      <path id="Path_227" data-name="Path 227" d="M109.352,245.722l4.114-.786-2.912-10.666-4.623.387Z" transform="translate(-71.42 -158.389)" fill="#dcb88b"/>
      <path id="Path_228" data-name="Path 228" d="M42.85,249.237l4.386.206.925-11.713L43.735,238Z" transform="translate(-33.267 -160.482)" fill="#dcb88b"/>
      <path id="Path_229" data-name="Path 229" d="M18.6,277.161c0,1.288,14.507,2.237,25.089,2.371,12.76.142,29.333-.814,29.345-2.221s-15.593-3.221-30.63-2.944C31.3,274.557,18.588,275.951,18.6,277.161Z" transform="translate(-18.6 -182.624)" fill="#241f20" opacity="0.1"/>
      <path id="Path_230" data-name="Path 230" d="M68,142.558l14.325-2.818q3.335,12.1,7.113,24.532,1.616,5.311,3.268,10.523L78.4,181.359q-2.569-9.089-5.023-18.221Q70.612,152.883,68,142.558Z" transform="translate(-48.479 -101.214)" fill="#0e3759"/>
      <path id="Path_231" data-name="Path 231" d="M78.418,144.35l4.485.217q-1.328,4.955-2.956,10.176-.9,2.9-1.857,5.671Z" transform="translate(-54.581 -104.003)" fill="#133a61" style="mix-blend-mode: multiply;isolation: isolate"/>
      <path id="Path_232" data-name="Path 232" d="M33.684,140.47l16.957.439c-.316,1.454-.79,3.655-1.316,6.323-1.454,7.433-2.2,12.614-2.841,16.763-.7,4.461-1.778,10.9-3.391,18.925H27.46q1.162-7.113,2.189-14.44.4-2.857.767-5.69Q32.048,151.63,33.684,140.47Z" transform="translate(-23.959 -101.656)" fill="#0e3759"/>
      <path id="Path_233" data-name="Path 233" d="M33.34,99.179C34.83,90.544,36.549,83.415,38,78.084c2.241-8.247,4.173-13.5,8.251-14.657a5.374,5.374,0,0,1,1.928-.217c5.928.443,9.484,11.021,12.231,19.253a102.19,102.19,0,0,1,4.066,16.72Z" transform="translate(-27.515 -54.919)" fill="#f46c63"/>
      <g id="Group_39" data-name="Group 39" transform="translate(5.366 8.136)" clip-path="url(#clip-path)">
        <path id="Path_234" data-name="Path 234" d="M33.709,82.82s2.628-14.752,7.2-18.775a9.207,9.207,0,0,1,.85-.652c.668-.431,3.122-2.027,5.643-1.324a5.473,5.473,0,0,1,2.438,1.549,17.79,17.79,0,0,1,4.28,7.9h0c.865,3.924,3.209,12.25,7.9,27.476a129.273,129.273,0,0,1-14.906.873A130.009,130.009,0,0,1,30.2,98.746C31.959,92.016,33.045,86.562,33.709,82.82Z" transform="translate(-30.982 -62.267)" fill="#231f20"/>
        <rect id="Rectangle_64" data-name="Rectangle 64" width="30.831" height="2.513" transform="translate(-0.848 29.016) rotate(-2.55)" fill="#ccc9d0"/>
        <rect id="Rectangle_65" data-name="Rectangle 65" width="26.417" height="2.497" transform="translate(1.255 22.843) rotate(-2.58)" fill="#ccc9d0"/>
      </g>
      <rect id="Rectangle_66" data-name="Rectangle 66" width="3.663" height="7.658" rx="1.832" transform="matrix(0.841, 0.541, -0.541, 0.841, 47.798, 7.963)" fill="#221e1f"/>
      <path id="Path_235" data-name="Path 235" d="M48.72,87.307a32.4,32.4,0,0,0,32.4-.217,24.315,24.315,0,0,1-4.05,10.274,20.183,20.183,0,0,1-7.437,6.892c-5.074,2.561-14.621,4.078-19.585-1.976C46.867,98.42,46.547,92.587,48.72,87.307Z" transform="translate(-35.976 -69.37)" fill="#67666a" style="mix-blend-mode: multiply;isolation: isolate"/>
      <path id="Path_236" data-name="Path 236" d="M131.84,72a1.185,1.185,0,0,1,.111.549,1.455,1.455,0,0,1,.545.656,1.5,1.5,0,0,1,0,1.091,1.759,1.759,0,0,1-.439.66,16.329,16.329,0,0,1-2.679,1.913l-3.229-3.375a6.056,6.056,0,0,1,.4-.723,6.544,6.544,0,0,1,2.577-2.3c.478-.253,2.114-1.1,2.845-.549a.541.541,0,0,1,.217.328c.043.36-.47.79-1.312,1.095a1.332,1.332,0,0,1,.968.656Z" transform="translate(-83.649 -58.876)" fill="#dcb88b" stroke="#9c654c" stroke-linecap="round" stroke-linejoin="round" stroke-width="0.5"/>
      <path id="Path_237" data-name="Path 237" d="M51.092,73.534c-4.548,3.319-5.805,11.942-2.1,17.265,4.394,6.323,14.123,5.592,19.759,3.406,10.35-4,12.566-15.269,12.693-15.981l-3.193-3.636a17.075,17.075,0,0,0-9.784.96,16.874,16.874,0,0,0-5.983,4.228q-.352-1.008-.7-2.055c-.091-.281-.17-.526-.233-.727-.115-.356-.194-.616-.2-.636a11.285,11.285,0,0,0-2.505-3.952C56.984,70.961,53.249,71.961,51.092,73.534Z" transform="translate(-35.668 -60.066)" fill="#f46c63" stroke="#d15956" stroke-miterlimit="10" stroke-width="1"/>
      <path id="Path_238" data-name="Path 238" d="M39.394,260.249a.506.506,0,0,0-.277.269c-.138.281.032.494.071.913a2.324,2.324,0,0,1-.2,1.091c-.154.4-.281.474-.474.9a3.817,3.817,0,0,0-.292,1c.565.174,1.415.419,2.446.684a30.845,30.845,0,0,0,9.132,1.407,20.153,20.153,0,0,0,5.351-.944,1.134,1.134,0,0,0-.075-.913c-.142-.206-.344-.253-.723-.4a13.717,13.717,0,0,1-1.944-.79c-.344-.186-.344-.225-.81-.474a9.845,9.845,0,0,0-.992-.474c-1.976-.846-1.834-.707-2.26-.952-.933-.541-1.213-1.023-1.711-1.035a3.252,3.252,0,0,1-.952-.154l-.138-.051a1.359,1.359,0,0,0-.992-.474c-.107,0-.371,0-.458.174s.087.577.53.921c-.1.079-.241.19-.419.312a4.4,4.4,0,0,1-1.186.707,2.507,2.507,0,0,1-2.371-.593c-.3-.34-.616-1-.984-1.11a.419.419,0,0,0-.269-.012Z" transform="translate(-30.467 -173.861)" fill="#f46c63"/>
      <path id="Path_239" data-name="Path 239" d="M58.68,262.216l1.008-.166.075.869.917-.257-.107.68,1.008-.162v.636l1.008-.3v.684l1.008-.209.261.64" transform="translate(-42.842 -175.191)" fill="none" stroke="#f06c64" stroke-linejoin="round" stroke-width="3"/>
      <path id="Path_240" data-name="Path 240" d="M52.55,262.194a1.028,1.028,0,0,0,.213.6,1.411,1.411,0,0,0,1.087.4c.549,0,.79-.237,1-.075s.075.308.265.553a1.185,1.185,0,0,0,.81.4c.62.079.885-.257,1.186-.067.221.138.115.332.356.553a1.541,1.541,0,0,0,1.186.206c.474-.043.474-.162.913-.166H60.3a1.679,1.679,0,0,0,.96-.3,1.557,1.557,0,0,0-.451-.285,1.581,1.581,0,0,0-.364-.1,11.65,11.65,0,0,1-1.715-.668c-.96-.356-1.438-.533-1.719-.672-1.581-.79-2.094-1.739-2.8-1.513a6.313,6.313,0,0,0-.644.447Z" transform="translate(-39.134 -174.565)" fill="#f7b3ad"/>
      <path id="Path_241" data-name="Path 241" d="M35.718,273.916c.186.557.826.767,1.348.937a11.415,11.415,0,0,0,3.185.245H40.8c1.348.032,1.869.075,3.161.107h.822l.1-.636.49.6c.269.036.68.079,1.186.115a15.18,15.18,0,0,0,3.1-.032,9.216,9.216,0,0,0,1.371-.245,6.185,6.185,0,0,0,2.114-.964c.51-.375.858-.632.933-1.075.095-.549-.253-1.186-.478-1.15s-.356.771-.4,1a.616.616,0,0,1,.036.4c-.1.336-.569.423-.968.573-.941.364-1.34.644-1.608.747-1,.4-4.876.095-9.812-1.557a7.874,7.874,0,0,0-4.086-.624,1.3,1.3,0,0,0-.83.439A1.186,1.186,0,0,0,35.718,273.916Z" transform="translate(-28.917 -181.098)" fill="#f06c64"/>
      <path id="Path_242" data-name="Path 242" d="M35.844,272.552a.573.573,0,0,0,.265.549c.273.119.5-.265.822-.166s.292.447.537.466.3-.269.553-.265c.119,0,.174.067.45.285.4.3.581.454.719.47.336.032.423-.3.731-.261s.328.447.723.569a1.241,1.241,0,0,0,1.012-.348c.328-.3.237-.522.466-.628.083-.036.348-.122,1.624.763.62.427.952.723,1.13.613.095-.063.107-.225.095-.364l.447.557h.454a9.223,9.223,0,0,0,1.233-.115c1.265-.15,2.071.3,2.553-.04a1.087,1.087,0,0,1,.368-.178,1.137,1.137,0,0,1,.545,0c.49.1.846-.427,1.751-.877s1.446-.415,1.47-.7c0-.17-.194-.316-.265-.367a2.407,2.407,0,0,0-1.913-.036c-1.976.522-3.821,1-5.11.356a5.283,5.283,0,0,0-.814-.4,6.14,6.14,0,0,0-1.909-.217,9.69,9.69,0,0,1-2.814-.692c-.636-.277-1.186-.613-1.45-.4-.178.15-.036.4-.194.545-.454.482-2.3-.9-2.814-.419-.091.083-.174.249-.107.636A.723.723,0,0,0,35.844,272.552Z" transform="translate(-29.028 -180.643)" fill="#f3f2e4"/>
      <path id="Path_243" data-name="Path 243" d="M110.314,256.105a.518.518,0,0,0-.134.364c0,.312.245.431.462.79a2.32,2.32,0,0,1,.288,1.071c.04.439-.047.545-.036,1.016a3.814,3.814,0,0,0,.17,1.027c.585-.091,1.454-.233,2.5-.443a30.4,30.4,0,0,0,8.836-2.691,19.9,19.9,0,0,0,4.414-3.161,1.122,1.122,0,0,0-.462-.79c-.217-.122-.419-.079-.814-.028a14.283,14.283,0,0,1-2.106.111c-.4-.02-.4-.051-.933-.075s-.881,0-1.1,0c-2.134.087-1.976.158-2.45.119-1.075-.083-1.537-.4-1.976-.19a3.265,3.265,0,0,1-.937.265h-.142a1.343,1.343,0,0,0-1.1,0c-.095.051-.328.178-.34.356s.328.482.877.6c-.055.115-.134.273-.241.462a4.454,4.454,0,0,1-.79,1.154,2.465,2.465,0,0,1-2.371.49c-.4-.178-.992-.636-1.367-.577A.451.451,0,0,0,110.314,256.105Z" transform="translate(-73.99 -169.812)" fill="#f46c63"/>
      <path id="Path_244" data-name="Path 244" d="M127,253.589l.83-.589.443.747.715-.628.2.66.834-.581.265.581.79-.707.285.62.818-.624.514.466" transform="translate(-84.164 -169.717)" fill="none" stroke="#f06c64" stroke-linejoin="round" stroke-width="3"/>
      <path id="Path_245" data-name="Path 245" d="M122.1,255.531a1,1,0,0,0,.454.443,1.4,1.4,0,0,0,1.146-.122c.49-.245.6-.553.873-.5.209.043.2.249.474.4a1.186,1.186,0,0,0,.9,0c.593-.2.684-.616,1.039-.577.257.032.245.253.557.348a1.55,1.55,0,0,0,1.154-.328c.4-.245.36-.352.755-.545.308-.15.6-.273.66-.3a1.7,1.7,0,0,0,.739-.688,1.486,1.486,0,0,0-.53-.059,1.679,1.679,0,0,0-.368.067,11.631,11.631,0,0,1-1.841.138c-1.016.1-1.525.146-1.838.142-1.766-.024-2.64-.66-3.161-.15a4.289,4.289,0,0,0-.4.68Z" transform="translate(-81.2 -170.075)" fill="#f7b3ad"/>
      <path id="Path_246" data-name="Path 246" d="M112.247,262.915c.4.419,1.075.332,1.62.261a11.406,11.406,0,0,0,2.976-1.162c.336-.154.253-.119.5-.225,1.229-.557,1.715-.743,2.877-1.269.154-.067.419-.186.747-.34l-.182-.616.7.328c.261-.087.648-.225,1.114-.4a15.525,15.525,0,0,0,2.766-1.367,9.419,9.419,0,0,0,1.126-.818,6.2,6.2,0,0,0,1.49-1.782c.3-.561.5-.94.4-1.375-.154-.533-.735-.944-.929-.826s0,.846.083,1.063a.6.6,0,0,1,.213.352c.047.348-.332.628-.624.937-.692.735-.929,1.158-1.126,1.367-.739.79-4.347,2.2-9.52,2.849a7.849,7.849,0,0,0-3.952,1.209,1.28,1.28,0,0,0-.553.755,1.186,1.186,0,0,0,.281,1.055Z" transform="translate(-75.054 -169.904)" fill="#f06c64"/>
      <path id="Path_247" data-name="Path 247" d="M111.695,263.781a.6.6,0,0,0,.474.4c.3,0,.336-.454.672-.506s.458.277.688.186.15-.368.4-.474c.107-.051.182,0,.526.059a2.161,2.161,0,0,0,.854.111c.316-.115.253-.45.549-.553s.5.257.889.194c.478-.075.743-.7.759-.747.17-.415,0-.577.15-.771.059-.067.261-.261,1.794,0,.747.119,1.185.237,1.284.063.059-.1,0-.249-.071-.367l.644.3a3.687,3.687,0,0,0,.4-.19,8.564,8.564,0,0,0,1.063-.632c1.075-.684,1.976-.632,2.28-1.146a1.091,1.091,0,0,1,.257-.316,1.185,1.185,0,0,1,.5-.229c.482-.119.577-.747,1.186-1.545s1.126-1,1.023-1.272c-.063-.162-.312-.2-.4-.217-.7-.115-1.336.454-1.739.79-1.581,1.332-3.011,2.553-4.454,2.533a5.356,5.356,0,0,0-.9,0,6.018,6.018,0,0,0-1.814.628,9.64,9.64,0,0,1-2.833.6c-.7.028-1.332-.039-1.478.273-.095.209.13.36.063.573-.205.632-2.466.186-2.723.846-.043.111-.043.3.186.616a.711.711,0,0,0-.225.8Z" transform="translate(-74.881 -171.6)" fill="#f3f2e4"/>
      <circle id="Ellipse_55" data-name="Ellipse 55" cx="3.845" cy="3.845" r="3.845" transform="translate(17.067 0.739)" fill="#d6b991"/>
      <circle id="Ellipse_56" data-name="Ellipse 56" cx="0.948" cy="0.948" r="0.948" transform="translate(19.565 5.805)" fill="none" stroke="#0096c5" stroke-miterlimit="10" stroke-width="1"/>
      <path id="Path_248" data-name="Path 248" d="M66.717,43.467a3.952,3.952,0,0,0-6.655,1.656,4.24,4.24,0,0,0-.158,1.11c-.04,1.4.04,2.221.036,2.8a6.592,6.592,0,0,1-.66,2.766h3.952a6.6,6.6,0,0,0,.79-3.723c.636-.427,2.707-1.9,2.707-4.011A5.066,5.066,0,0,0,66.717,43.467Z" transform="translate(-43.204 -42.249)" fill="#9d654c"/>
      <path id="Path_249" data-name="Path 249" d="M76.65,44.73A6.524,6.524,0,0,0,78.626,47.5,2.114,2.114,0,0,0,76.65,44.73Z" transform="translate(-53.71 -43.75)" fill="#9d654c"/>
    </g>
  </g>
</svg>
